<svg xmlns="http://www.w3.org/2000/svg" viewBox="0 0 177.73 158.02"><defs><style>.cls-1,.cls-3{fill:#d62230;}.cls-2{fill:#f15a24;}.cls-2,.cls-3{opacity:0.8;}.cls-4{fill:#ff5468;opacity:0.9;}.cls-5{fill:#c1272d;}.cls-6{fill:#d40025;}</style></defs><title>Asset 10</title><g id="Layer_2" data-name="Layer 2"><g id="OBJECTS"><polygon class="cls-1" points="177.63 50.15 132.94 0.39 44.51 0.39 0.04 50.09 89.86 155.78 177.63 50.15"/><polygon class="cls-2" points="0 50.39 88.86 157.16 44.43 50.39 0 50.39"/><polygon class="cls-2" points="88.86 50.39 177.73 50.39 133.3 0 88.86 50.39"/><polygon class="cls-3" points="88.86 157.16 177.73 50.39 133.3 50.39 88.86 157.16"/><polygon class="cls-4" points="44.43 50.39 133.3 50.39 88.86 0 44.43 50.39"/><polygon class="cls-2" points="44.43 0 0 50.39 88.86 50.39 44.43 0"/><polygon class="cls-3" points="44.36 50.39 133.37 50.39 88.86 157.16 44.36 50.39"/><polygon class="cls-5" points="89.31 158.02 89.31 50.39 133.37 50.39 89.31 158.02"/><polygon class="cls-5" points="88.86 157.62 177.73 50.85 155.16 51.04 88.86 158.02 23.77 51.04 0 50.85 88.86 157.62"/><polygon class="cls-6" points="89.31 0.54 89.31 50.85 111.36 25.97 89.31 0.54"/><polygon class="cls-6" points="133.3 0 155.47 50.39 133.37 50.39 133.3 0"/><polygon class="cls-6" points="44.43 0.54 23.77 51.04 44.36 50.85 44.43 0.54"/><polygon class="cls-3" points="133.3 0.39 88.86 50.02 44.43 0.39 133.3 0.39"/><path class="cls-1" d="M90.13,156l-.26.43.09-.22Z"/></g></g></svg>