<svg xmlns="http://www.w3.org/2000/svg" xmlns:xlink="http://www.w3.org/1999/xlink" viewBox="0 0 176.71 156.51"><defs><style>.cls-1,.cls-4{fill:#9d4f83;}.cls-2{fill:#b2629a;}.cls-3{fill:#a54277;}.cls-4{opacity:0.9;}.cls-5{opacity:0.2;fill:url(#Earthtone_26);}.cls-6{fill:#ce8fff;opacity:0.7;}</style><linearGradient id="Earthtone_26" x1="42.5" y1="24.65" x2="87.41" y2="24.65" gradientUnits="userSpaceOnUse"><stop offset="0" stop-color="#7d3825"/><stop offset="0.54" stop-color="#4f0000"/><stop offset="1" stop-color="#2d0000"/></linearGradient></defs><title>Asset 9</title><g id="Layer_2" data-name="Layer 2"><g id="OBJECTS"><path class="cls-1" d="M176.71,49.68,132.28.29H43.09L.62,49.68l87,106.45"/><polygon class="cls-2" points="42.5 0 0 49.3 42.5 49.3 42.5 0"/><polygon class="cls-3" points="0.49 49.3 87.83 155.87 43.39 49.3 0.49 49.3"/><polygon class="cls-3" points="87.83 155.87 176.69 49.3 132.26 49.3 87.83 155.87"/><polygon class="cls-4" points="43.32 49.3 132.33 49.3 87.83 155.98 43.32 49.3"/><polygon class="cls-1" points="132.5 0 176.71 49.3 132.5 49.3 132.5 0"/><polygon class="cls-2" points="87.5 0 43.09 49.3 87.5 49.3 87.5 0"/><polygon class="cls-4" points="132.5 0 132.5 49.3 87.78 49.3 132.5 0"/><polygon class="cls-2" points="87.5 49.3 87.5 156.51 132.33 49.3 87.5 49.3"/><polygon class="cls-3" points="42.5 49.53 42.5 0.29 87.83 0.29 42.5 49.53"/><polygon class="cls-5" points="42.5 0 87.41 49.3 42.5 49.3 42.5 0"/><polygon class="cls-6" points="87.5 0 132.09 49.3 87.5 49.3 87.5 0"/></g></g></svg>