<svg xmlns="http://www.w3.org/2000/svg" viewBox="0 0 177.73 158.11"><defs><style>.cls-1{fill:#34f7c9;}.cls-2{fill:#38d6ad;}.cls-2,.cls-3,.cls-5,.cls-7,.cls-8{opacity:0.5;}.cls-3{fill:#92fcdb;}.cls-4{fill:#25b786;}.cls-5{fill:#1ec696;}.cls-6{fill:#1fcc92;}.cls-7{fill:#80f9e2;}.cls-8{fill:#9afce9;}</style></defs><title>Asset 6</title><g id="Layer_2" data-name="Layer 2"><g id="OBJECTS"><polygon class="cls-1" points="89.99 156.14 177.54 50.15 132.92 0.39 44.49 0.39 44.49 0.39 44.49 0.39 44.49 0.39 44.49 0.39 0.09 50.15 89.99 156.14"/><polygon class="cls-2" points="44.43 0 0 50.39 88.86 50.39 44.43 0"/><polygon class="cls-3" points="133.29 0.39 44.43 0.39 88.86 50.21 133.29 0.39"/><polygon class="cls-4" points="0 50.39 88.86 157.16 44.43 50.39 0 50.39"/><polygon class="cls-4" points="88.86 157.16 177.73 50.39 133.29 50.39 88.86 157.16"/><polygon class="cls-5" points="44.43 50.39 133.29 50.39 88.86 0 44.43 50.39"/><polygon class="cls-3" points="88.86 50.39 177.73 50.39 133.29 0 88.86 50.39"/><polygon class="cls-6" points="44.36 50.39 133.37 50.39 88.86 157.16 44.36 50.39"/><polygon class="cls-7" points="44.31 0 44.36 50.39 88.95 50.39 44.31 0"/><polygon class="cls-2" points="133.29 0 133.37 50.39 88.86 50.39 133.29 0"/><polygon class="cls-8" points="89.42 50.39 89.42 158.11 133.37 50.39 89.42 50.39"/></g></g></svg>