<svg xmlns="http://www.w3.org/2000/svg" viewBox="0 0 177.73 157.77"><defs><style>.cls-1,.cls-3{fill:#e16aff;}.cls-2,.cls-4{fill:#da00ff;}.cls-2,.cls-3,.cls-6{opacity:0.7;}.cls-5{fill:#f0f;opacity:0.5;}.cls-6{fill:#e594ff;}</style></defs><title>Asset 3</title><g id="Layer_2" data-name="Layer 2"><g id="OBJECTS"><polygon class="cls-1" points="133.02 0 133.02 0 44.6 0 44.6 0 0.08 50.1 88.91 157.1 177.61 49.98 133.02 0"/><polygon class="cls-2" points="44.43 0 88.7 49.43 133.3 0 44.43 0"/><polygon class="cls-3" points="44.43 0.61 0 51 88.86 51 44.43 0.61"/><polygon class="cls-4" points="0 51 88.86 157.77 44.43 51 0 51"/><polygon class="cls-5" points="88.86 51 177.73 51 133.3 0.61 88.86 51"/><polygon class="cls-6" points="88.86 157.77 177.73 51 133.3 51 88.86 157.77"/><polygon class="cls-6" points="42.62 51 131.48 51 87.05 0.61 42.62 51"/><polygon class="cls-5" points="44.36 51 133.37 51 88.86 157.77 44.36 51"/><polygon class="cls-6" points="88.7 51 88.86 157.77 44.36 51 88.7 51"/></g></g></svg>