<svg width="50" height="50" viewBox="0 0 50 50" xmlns="http://www.w3.org/2000/svg" xmlns:xlink="http://www.w3.org/1999/xlink"><title>Gem</title><defs><path id="a" d="M50 41.793V8.207L41.793 0H8.207L0 8.207v33.586L8.207 50h33.586z"/><path id="c" d="M50 41.793V8.207L41.793 0H8.207L0 8.207v33.586L8.207 50h33.586z"/><path id="e" d="M50 41.793V8.207L41.793 0H8.207L0 8.207v33.586L8.207 50h33.586z"/><path id="g" d="M50 41.793V8.207L41.793 0H8.207L0 8.207v33.586L8.207 50h33.586z"/><path id="i" d="M50 41.793V8.207L41.793 0H8.207L0 8.207v33.586L8.207 50h33.586z"/></defs><g fill="none" fill-rule="evenodd"><path d="M50 41.793V8.207L41.793 0H8.207L0 8.207v33.586L8.207 50h33.586z" fill="#AFE94C"/><mask id="b" fill="#fff"><use xlink:href="#a"/></mask><path fill="#A1D64B" mask="url(#b)" d="M37.079 7.189l4.736-7.23 8.106 8.204-6.909 4.932z"/><mask id="d" fill="#fff"><use xlink:href="#c"/></mask><path fill="#A1D64B" mask="url(#d)" transform="matrix(-1 0 0 1 13.011 0)" d="M-.06 7.177L4.774-.069l8.297 8.296-7.21 4.87z"/><mask id="f" fill="#fff"><use xlink:href="#e"/></mask><path fill="#95C349" mask="url(#f)" transform="matrix(1 0 0 -1 0 87.137)" d="M37.113 44.172l4.822-7.097 8.048 8.227-7.024 4.76z"/><mask id="h" fill="#fff"><use xlink:href="#g"/></mask><path fill="#A1D64B" mask="url(#h)" transform="rotate(180 6.52 43.288)" d="M-.032 44.118l4.825-7.58 8.279 8.12-7.181 5.38z"/><mask id="j" fill="#fff"><use xlink:href="#i"/></mask><path fill="#C1EE75" mask="url(#j)" d="M42.857 36.995v-23.99l-5.862-5.862h-23.99l-5.862 5.862v23.99l5.862 5.862h23.99z"/></g></svg>