<svg xmlns="http://www.w3.org/2000/svg" xmlns:xlink="http://www.w3.org/1999/xlink" viewBox="0 0 177.76 156.43"><defs><style>.cls-1,.cls-2{fill:#8cc63f;}.cls-2{opacity:0.9;}.cls-3{fill:url(#Foliage_3);}.cls-4{fill:url(#Foliage_4);}.cls-5{opacity:0.5;fill:url(#Foliage_5);}.cls-6{fill:url(#Foliage_4-2);}</style><linearGradient id="Foliage_3" y1="102.83" x2="88.86" y2="102.83" gradientUnits="userSpaceOnUse"><stop offset="0" stop-color="#8fc274"/><stop offset="0.5" stop-color="#699a44"/><stop offset="1" stop-color="#4a7c32"/></linearGradient><linearGradient id="Foliage_4" x1="88.86" y1="24.72" x2="177.73" y2="24.72" gradientUnits="userSpaceOnUse"><stop offset="0.01" stop-color="#9dbd6a"/><stop offset="0.5" stop-color="#7fae41"/><stop offset="1" stop-color="#5b822e"/></linearGradient><linearGradient id="Foliage_5" x1="42.62" y1="24.72" x2="131.48" y2="24.72" gradientUnits="userSpaceOnUse"><stop offset="0" stop-color="#bcc47a"/><stop offset="0.52" stop-color="#9cad3b"/><stop offset="1" stop-color="#788d2f"/></linearGradient><linearGradient id="Foliage_4-2" x1="44.36" y1="102.83" x2="133.37" y2="102.83" xlink:href="#Foliage_4"/></defs><title>Asset 4</title><g id="Layer_2" data-name="Layer 2"><g id="OBJECTS"><path class="cls-1" d="M133.29.44H44.7L.14,49.74,88.93,156.43,177.76,49.78Z"/><polygon class="cls-2" points="44.43 0.44 88.7 49.78 133.29 0.44 44.43 0.44"/><polygon class="cls-1" points="44.43 0 0 49.44 88.86 49.44 44.43 0"/><polygon class="cls-3" points="0 49.44 88.86 156.21 44.43 49.44 0 49.44"/><polygon class="cls-4" points="88.86 49.44 177.73 49.44 133.29 0 88.86 49.44"/><polygon class="cls-1" points="88.86 156.21 177.73 49.44 133.29 49.44 88.86 156.21"/><polygon class="cls-5" points="42.62 49.44 131.48 49.44 87.05 0 42.62 49.44"/><polygon class="cls-6" points="44.36 49.44 133.37 49.44 88.86 156.21 44.36 49.44"/><polygon class="cls-1" points="88.7 49.44 88.86 156.21 44.36 49.44 88.7 49.44"/></g></g></svg>