<svg xmlns="http://www.w3.org/2000/svg" viewBox="0 0 177.73 158.19"><defs><style>.cls-1{fill:#fcda15;}.cls-2{fill:#f4e84d;}.cls-2,.cls-3,.cls-4,.cls-5{opacity:0.8;}.cls-3{fill:#f9c110;}.cls-4{fill:#ffe736;}.cls-5{fill:#fff980;}</style></defs><title>Asset 5</title><g id="Layer_2" data-name="Layer 2"><g id="OBJECTS"><polygon class="cls-1" points="177.64 49.98 133.13 0 44.7 0 0.14 49.98 88.82 156.69 177.64 49.98"/><polygon class="cls-2" points="44.43 0.61 0 51 88.86 51 44.43 0.61"/><polygon class="cls-3" points="0 51 88.86 157.77 44.43 51 0 51"/><polygon class="cls-3" points="88.86 51 177.73 51 133.29 0.61 88.86 51"/><polygon class="cls-4" points="88.86 157.77 177.73 51 133.29 51 88.86 157.77"/><polygon class="cls-3" points="44.43 51 133.29 51 88.86 0.61 44.43 51"/><polygon class="cls-5" points="133.29 0 44.43 0 88.86 50.07 133.29 0"/><polygon class="cls-4" points="44.36 51 88.86 51 133.37 51 88.86 157.77 44.36 51"/><polygon class="cls-5" points="88.42 51 88.42 158.19 133.37 51 88.42 51"/></g></g></svg>