<svg xmlns="http://www.w3.org/2000/svg" xmlns:xlink="http://www.w3.org/1999/xlink" viewBox="0 0 183.02 156.26"><defs><style>.cls-1,.cls-4,.cls-8{fill:#29abe2;}.cls-2{fill:url(#Water_7);}.cls-3{fill:blue;}.cls-4{opacity:0.8;}.cls-5{fill:#ff9554;}.cls-6{fill:#008cd4;}.cls-7{fill:#ffaa3f;}.cls-8{opacity:0.9;}.cls-9{fill:#ffdb54;}.cls-10{fill:#946400;}.cls-11{fill:#ff7b15;opacity:0.3;}.cls-12{fill:#006ae7;}.cls-13{fill:#43c3ef;}</style><linearGradient id="Water_7" x1="45.75" y1="14.63" x2="137.26" y2="14.63" gradientUnits="userSpaceOnUse"><stop offset="0" stop-color="#69afe0"/><stop offset="0.1" stop-color="#60addf"/><stop offset="0.26" stop-color="#46a6dc"/><stop offset="0.46" stop-color="#1d9bd7"/><stop offset="0.58" stop-color="#0094d3"/><stop offset="1" stop-color="#007fc3"/></linearGradient></defs><title>Asset 2</title><g id="Layer_2" data-name="Layer 2"><g id="OBJECTS"><path class="cls-1" d="M136.87,0H46.13L0,52.43,91.51,156.26,183,52.53Z"/><polygon class="cls-1" points="68.38 25.85 45.75 0.31 0 52.32 0.4 53 44.84 53 68.38 25.85"/><polygon class="cls-2" points="90.2 0 91 0 113.73 29.26 137.26 0 45.75 0 68.38 28.22 90.2 0"/><polygon class="cls-1" points="45.75 104 91.51 156.22 68.08 104 45.75 104"/><polygon class="cls-1" points="91.51 156.22 137.26 104 114.03 104 91.51 156.22"/><polygon class="cls-1" points="137.26 0.18 113.73 26.88 136.36 53 182.62 53 183.02 52.25 137.26 0.18"/><polygon class="cls-3" points="44.84 53 0.4 53 45.75 104.47 60.52 87.77 44.84 53"/><polygon class="cls-3" points="121.69 86.7 137.26 104.62 182.62 53 136.36 53 121.69 86.7"/><polygon class="cls-4" points="60.52 87.15 45.75 104 68.08 104 60.52 87.15"/><polygon class="cls-4" points="114.03 104 137.26 104 121.69 86.23 114.03 104"/><polygon class="cls-5" points="91.51 52.25 68.38 26 44.84 53 91.11 53 91.51 52.25"/><polygon class="cls-6" points="91.51 52.25 68.38 26 44.84 53 91.11 53 91.51 52.25"/><polygon class="cls-7" points="90.2 0 68.38 26.66 91.51 52.51 113.73 27.97 91 0 90.2 0"/><polygon class="cls-8" points="90.2 0 68.38 26.66 91.51 52.51 113.73 27.97 91 0 90.2 0"/><polygon class="cls-9" points="91.91 53 136.36 53 113.73 26.88 91.51 52.4 91.91 53"/><polygon class="cls-6" points="91.91 53 136.36 53 113.73 26.88 91.51 52.4 91.91 53"/><polygon class="cls-10" points="91.91 52.41 91.51 51.95 91.11 52.41 91.91 52.41"/><polygon class="cls-11" points="91.91 52.41 91.51 51.95 91.11 52.41 91.91 52.41"/><polygon class="cls-12" points="44.84 53 60.52 87.92 91.11 53 44.84 53"/><polygon class="cls-12" points="121.69 87 136.36 53 91.91 53 121.69 87"/><polygon class="cls-13" points="91.91 53 91.11 53 60.52 87.45 91.51 156.18 121.69 86.59 91.91 53"/></g></g></svg>