<svg xmlns="http://www.w3.org/2000/svg" viewBox="0 0 176.2 157.16"><defs><style>.cls-1,.cls-4{fill:#a67c52;}.cls-2{fill:#754c24;}.cls-3{fill:#c69c6d;}.cls-4{opacity:0.8;}.cls-5{fill:#8c6239;}</style></defs><title>Asset 7</title><g id="Layer_2" data-name="Layer 2"><g id="OBJECTS"><path class="cls-1" d="M176.2,50.35,131.6.39H43.17l-43,50L87.38,156.89Z"/><polygon class="cls-1" points="42.6 0.54 0.27 50.39 42.6 50.39 42.6 0.54"/><polygon class="cls-2" points="0 50.39 87.33 156.71 42.9 50.39 0 50.39"/><polygon class="cls-3" points="42.9 50.39 131.77 50.39 87.33 0 42.9 50.39"/><polygon class="cls-2" points="87.33 156.71 176.2 50.39 131.77 50.39 87.33 156.71"/><polygon class="cls-4" points="131.77 0.39 42.9 0.39 87.33 49.77 131.77 0.39"/><polygon class="cls-5" points="42.83 50.39 87.17 50.39 131.84 50.39 87.33 157.16 42.83 50.39"/><polygon class="cls-1" points="131.6 0.54 176.03 50.39 131.6 50.39 131.6 0.54"/><polygon class="cls-2" points="42.9 0.54 42.83 50.93 64.95 25.41 42.9 0.54"/><polygon class="cls-2" points="131.6 0.54 131.6 50.93 109.39 25.5 131.6 0.54"/><polygon class="cls-1" points="131.41 50.39 86.6 156.14 86.6 50.39 131.41 50.39"/></g></g></svg>